<?xml version="1.0" encoding="UTF-8"?>
<svg xmlns="http://www.w3.org/2000/svg" xmlns:xlink="http://www.w3.org/1999/xlink" width="30pt" height="30pt" viewBox="0 0 30 30" version="1.1">
<g id="surface1">
<path style=" stroke:none;fill-rule:nonzero;fill:rgb(0%,40.392157%,96.470588%);fill-opacity:1;" d="M 21.09375 0.46875 L 8.90625 0.46875 C 7.871094 0.46875 7.03125 1.308594 7.03125 2.34375 L 7.03125 27.65625 C 7.03125 28.691406 7.871094 29.53125 8.90625 29.53125 L 21.09375 29.53125 C 22.128906 29.53125 22.96875 28.691406 22.96875 27.65625 L 22.96875 2.34375 C 22.96875 1.308594 22.128906 0.46875 21.09375 0.46875 Z M 17.195312 1.40625 L 16.929688 2.34375 L 13.023438 2.34375 L 12.789062 1.40625 Z M 22.03125 27.65625 C 22.03125 28.171875 21.609375 28.59375 21.09375 28.59375 L 8.90625 28.59375 C 8.390625 28.59375 7.96875 28.171875 7.96875 27.65625 L 7.96875 2.34375 C 7.96875 1.828125 8.390625 1.40625 8.90625 1.40625 L 11.820312 1.40625 L 12.203125 2.925781 C 12.253906 3.136719 12.441406 3.28125 12.65625 3.28125 L 17.285156 3.28125 C 17.496094 3.28125 17.679688 3.140625 17.734375 2.941406 L 18.167969 1.40625 L 21.09375 1.40625 C 21.609375 1.40625 22.03125 1.828125 22.03125 2.34375 Z M 22.03125 27.65625 "/>
<path style=" stroke:none;fill-rule:nonzero;fill:rgb(0%,40.392157%,96.470588%);fill-opacity:1;" d="M 12.65625 26.71875 L 9.375 26.71875 C 9.117188 26.71875 8.90625 26.929688 8.90625 27.1875 C 8.90625 27.445312 9.117188 27.65625 9.375 27.65625 L 12.65625 27.65625 C 12.914062 27.65625 13.125 27.445312 13.125 27.1875 C 13.125 26.929688 12.914062 26.71875 12.65625 26.71875 Z M 12.65625 26.71875 "/>
<path style=" stroke:none;fill-rule:nonzero;fill:rgb(0%,40.392157%,96.470588%);fill-opacity:1;" d="M 14.53125 26.71875 L 14.0625 26.71875 C 13.804688 26.71875 13.59375 26.929688 13.59375 27.1875 C 13.59375 27.445312 13.804688 27.65625 14.0625 27.65625 L 14.53125 27.65625 C 14.789062 27.65625 15 27.445312 15 27.1875 C 15 26.929688 14.789062 26.71875 14.53125 26.71875 Z M 14.53125 26.71875 "/>
<path style=" stroke:none;fill-rule:nonzero;fill:rgb(0%,40.392157%,96.470588%);fill-opacity:1;" d="M 16.648438 12.253906 C 16.425781 12.121094 16.136719 12.191406 16.003906 12.414062 L 13.191406 17.101562 C 13.058594 17.324219 13.128906 17.613281 13.351562 17.746094 C 13.574219 17.878906 13.863281 17.808594 13.996094 17.585938 L 16.808594 12.898438 C 16.941406 12.675781 16.871094 12.386719 16.648438 12.253906 Z M 16.648438 12.253906 "/>
<path style=" stroke:none;fill-rule:nonzero;fill:rgb(0%,40.392157%,96.470588%);fill-opacity:1;" d="M 18.179688 12.363281 C 18.015625 12.160156 17.722656 12.128906 17.519531 12.289062 C 17.316406 12.453125 17.285156 12.746094 17.445312 12.949219 L 19.085938 15 L 17.445312 17.050781 C 17.285156 17.253906 17.316406 17.546875 17.519531 17.710938 C 17.722656 17.871094 18.015625 17.839844 18.179688 17.636719 L 20.054688 15.292969 C 20.191406 15.121094 20.191406 14.878906 20.054688 14.707031 Z M 18.179688 12.363281 "/>
<path style=" stroke:none;fill-rule:nonzero;fill:rgb(0%,40.392157%,96.470588%);fill-opacity:1;" d="M 11.820312 17.636719 C 11.984375 17.839844 12.277344 17.871094 12.480469 17.710938 C 12.683594 17.546875 12.714844 17.253906 12.554688 17.050781 L 10.914062 15 L 12.554688 12.949219 C 12.714844 12.746094 12.683594 12.453125 12.480469 12.289062 C 12.277344 12.128906 11.984375 12.160156 11.820312 12.363281 L 9.945312 14.707031 C 9.808594 14.878906 9.808594 15.121094 9.945312 15.292969 Z M 11.820312 17.636719 "/>
</g>
</svg>
