<?xml version="1.0" encoding="UTF-8"?>
<svg xmlns="http://www.w3.org/2000/svg" xmlns:xlink="http://www.w3.org/1999/xlink" width="30pt" height="30pt" viewBox="0 0 30 30" version="1.1">
<g id="surface1">
<path style=" stroke:none;fill-rule:nonzero;fill:rgb(0%,40.392157%,96.470588%);fill-opacity:1;" d="M 20.539062 9.378906 C 20.347656 8.816406 19.816406 8.4375 19.21875 8.4375 L 18.75 8.4375 L 18.75 7.5 L 19.21875 7.5 C 19.996094 7.496094 20.621094 6.871094 20.625 6.09375 L 20.625 2.34375 C 20.621094 1.566406 19.996094 0.941406 19.21875 0.9375 L 2.34375 0.9375 C 1.566406 0.941406 0.941406 1.566406 0.9375 2.34375 L 0.9375 6.09375 C 0.941406 6.871094 1.566406 7.496094 2.34375 7.5 L 2.8125 7.5 L 2.8125 8.4375 L 2.34375 8.4375 C 1.566406 8.441406 0.941406 9.066406 0.9375 9.84375 L 0.9375 13.59375 C 0.941406 14.371094 1.566406 14.996094 2.34375 15 L 2.8125 15 L 2.8125 15.9375 L 2.34375 15.9375 C 1.566406 15.941406 0.941406 16.566406 0.9375 17.34375 L 0.9375 21.09375 C 0.941406 21.871094 1.566406 22.496094 2.34375 22.5 L 11.25 22.5 L 11.25 26.25 C 11.25 28.097656 15.730469 29.0625 20.15625 29.0625 C 24.582031 29.0625 29.0625 28.097656 29.0625 26.25 L 29.0625 12.1875 C 29.0625 10.390625 24.839844 9.4375 20.539062 9.378906 Z M 2.34375 6.5625 C 2.085938 6.5625 1.875 6.351562 1.875 6.09375 L 1.875 2.34375 C 1.875 2.085938 2.085938 1.875 2.34375 1.875 L 19.21875 1.875 C 19.476562 1.875 19.6875 2.085938 19.6875 2.34375 L 19.6875 6.09375 C 19.6875 6.351562 19.476562 6.5625 19.21875 6.5625 Z M 17.8125 7.5 L 17.8125 8.4375 L 15.9375 8.4375 L 15.9375 7.5 Z M 15 7.5 L 15 8.4375 L 6.5625 8.4375 L 6.5625 7.5 Z M 5.625 7.5 L 5.625 8.4375 L 3.75 8.4375 L 3.75 7.5 Z M 11.25 21.5625 L 2.34375 21.5625 C 2.085938 21.5625 1.875 21.351562 1.875 21.09375 L 1.875 17.34375 C 1.875 17.085938 2.085938 16.875 2.34375 16.875 L 11.25 16.875 Z M 3.75 15.9375 L 3.75 15 L 5.625 15 L 5.625 15.9375 Z M 11.25 15.9375 L 6.5625 15.9375 L 6.5625 15 L 11.25 15 Z M 11.25 12.1875 L 11.25 14.0625 L 2.34375 14.0625 C 2.085938 14.0625 1.875 13.851562 1.875 13.59375 L 1.875 9.84375 C 1.875 9.585938 2.085938 9.375 2.34375 9.375 L 19.21875 9.375 C 19.242188 9.378906 19.261719 9.382812 19.285156 9.390625 C 15.160156 9.507812 11.25 10.460938 11.25 12.1875 Z M 28.125 26.25 C 28.125 26.886719 25.3125 28.125 20.15625 28.125 C 15 28.125 12.1875 26.886719 12.1875 26.25 L 12.1875 22.882812 C 13.730469 23.863281 16.949219 24.375 20.15625 24.375 C 23.363281 24.375 26.582031 23.863281 28.125 22.882812 Z M 28.125 21.5625 C 28.125 22.199219 25.3125 23.4375 20.15625 23.4375 C 15 23.4375 12.1875 22.199219 12.1875 21.5625 L 12.1875 18.195312 C 13.730469 19.175781 16.949219 19.6875 20.15625 19.6875 C 23.363281 19.6875 26.582031 19.175781 28.125 18.195312 Z M 28.125 16.875 C 28.125 17.511719 25.3125 18.75 20.15625 18.75 C 15 18.75 12.1875 17.511719 12.1875 16.875 L 12.1875 13.507812 C 13.730469 14.488281 16.949219 15 20.15625 15 C 23.363281 15 26.582031 14.488281 28.125 13.507812 Z M 20.15625 14.0625 C 15 14.0625 12.1875 12.824219 12.1875 12.1875 C 12.1875 11.550781 15 10.3125 20.15625 10.3125 C 25.3125 10.3125 28.125 11.550781 28.125 12.1875 C 28.125 12.824219 25.3125 14.0625 20.15625 14.0625 Z M 20.15625 14.0625 "/>
<path style=" stroke:none;fill-rule:nonzero;fill:rgb(0%,40.392157%,96.470588%);fill-opacity:1;" d="M 19.6875 16.40625 L 20.625 16.40625 L 20.625 17.34375 L 19.6875 17.34375 Z M 19.6875 16.40625 "/>
<path style=" stroke:none;fill-rule:nonzero;fill:rgb(0%,40.392157%,96.470588%);fill-opacity:1;" d="M 19.6875 21.5625 L 20.625 21.5625 L 20.625 22.5 L 19.6875 22.5 Z M 19.6875 21.5625 "/>
<path style=" stroke:none;fill-rule:nonzero;fill:rgb(0%,40.392157%,96.470588%);fill-opacity:1;" d="M 19.6875 25.78125 L 20.625 25.78125 L 20.625 26.71875 L 19.6875 26.71875 Z M 19.6875 25.78125 "/>
<path style=" stroke:none;fill-rule:nonzero;fill:rgb(0%,40.392157%,96.470588%);fill-opacity:1;" d="M 5.15625 10.3125 L 3.28125 10.3125 C 3.023438 10.3125 2.8125 10.523438 2.8125 10.78125 L 2.8125 12.65625 C 2.8125 12.914062 3.023438 13.125 3.28125 13.125 L 5.15625 13.125 C 5.414062 13.125 5.625 12.914062 5.625 12.65625 L 5.625 10.78125 C 5.625 10.523438 5.414062 10.3125 5.15625 10.3125 Z M 4.6875 12.1875 L 3.75 12.1875 L 3.75 11.25 L 4.6875 11.25 Z M 4.6875 12.1875 "/>
<path style=" stroke:none;fill-rule:nonzero;fill:rgb(0%,40.392157%,96.470588%);fill-opacity:1;" d="M 8.90625 10.3125 L 7.03125 10.3125 C 6.773438 10.3125 6.5625 10.523438 6.5625 10.78125 L 6.5625 12.65625 C 6.5625 12.914062 6.773438 13.125 7.03125 13.125 L 8.90625 13.125 C 9.164062 13.125 9.375 12.914062 9.375 12.65625 L 9.375 10.78125 C 9.375 10.523438 9.164062 10.3125 8.90625 10.3125 Z M 8.4375 12.1875 L 7.5 12.1875 L 7.5 11.25 L 8.4375 11.25 Z M 8.4375 12.1875 "/>
<path style=" stroke:none;fill-rule:nonzero;fill:rgb(0%,40.392157%,96.470588%);fill-opacity:1;" d="M 5.15625 2.8125 L 3.28125 2.8125 C 3.023438 2.8125 2.8125 3.023438 2.8125 3.28125 L 2.8125 5.15625 C 2.8125 5.414062 3.023438 5.625 3.28125 5.625 L 5.15625 5.625 C 5.414062 5.625 5.625 5.414062 5.625 5.15625 L 5.625 3.28125 C 5.625 3.023438 5.414062 2.8125 5.15625 2.8125 Z M 4.6875 4.6875 L 3.75 4.6875 L 3.75 3.75 L 4.6875 3.75 Z M 4.6875 4.6875 "/>
<path style=" stroke:none;fill-rule:nonzero;fill:rgb(0%,40.392157%,96.470588%);fill-opacity:1;" d="M 8.90625 2.8125 L 7.03125 2.8125 C 6.773438 2.8125 6.5625 3.023438 6.5625 3.28125 L 6.5625 5.15625 C 6.5625 5.414062 6.773438 5.625 7.03125 5.625 L 8.90625 5.625 C 9.164062 5.625 9.375 5.414062 9.375 5.15625 L 9.375 3.28125 C 9.375 3.023438 9.164062 2.8125 8.90625 2.8125 Z M 8.4375 4.6875 L 7.5 4.6875 L 7.5 3.75 L 8.4375 3.75 Z M 8.4375 4.6875 "/>
<path style=" stroke:none;fill-rule:nonzero;fill:rgb(0%,40.392157%,96.470588%);fill-opacity:1;" d="M 10.3125 2.8125 L 16.875 2.8125 L 16.875 3.75 L 10.3125 3.75 Z M 10.3125 2.8125 "/>
<path style=" stroke:none;fill-rule:nonzero;fill:rgb(0%,40.392157%,96.470588%);fill-opacity:1;" d="M 17.8125 2.8125 L 18.75 2.8125 L 18.75 3.75 L 17.8125 3.75 Z M 17.8125 2.8125 "/>
<path style=" stroke:none;fill-rule:nonzero;fill:rgb(0%,40.392157%,96.470588%);fill-opacity:1;" d="M 10.3125 4.6875 L 16.875 4.6875 L 16.875 5.625 L 10.3125 5.625 Z M 10.3125 4.6875 "/>
<path style=" stroke:none;fill-rule:nonzero;fill:rgb(0%,40.392157%,96.470588%);fill-opacity:1;" d="M 17.8125 4.6875 L 18.75 4.6875 L 18.75 5.625 L 17.8125 5.625 Z M 17.8125 4.6875 "/>
<path style=" stroke:none;fill-rule:nonzero;fill:rgb(0%,40.392157%,96.470588%);fill-opacity:1;" d="M 5.15625 17.8125 L 3.28125 17.8125 C 3.023438 17.8125 2.8125 18.023438 2.8125 18.28125 L 2.8125 20.15625 C 2.8125 20.414062 3.023438 20.625 3.28125 20.625 L 5.15625 20.625 C 5.414062 20.625 5.625 20.414062 5.625 20.15625 L 5.625 18.28125 C 5.625 18.023438 5.414062 17.8125 5.15625 17.8125 Z M 4.6875 19.6875 L 3.75 19.6875 L 3.75 18.75 L 4.6875 18.75 Z M 4.6875 19.6875 "/>
<path style=" stroke:none;fill-rule:nonzero;fill:rgb(0%,40.392157%,96.470588%);fill-opacity:1;" d="M 8.90625 17.8125 L 7.03125 17.8125 C 6.773438 17.8125 6.5625 18.023438 6.5625 18.28125 L 6.5625 20.15625 C 6.5625 20.414062 6.773438 20.625 7.03125 20.625 L 8.90625 20.625 C 9.164062 20.625 9.375 20.414062 9.375 20.15625 L 9.375 18.28125 C 9.375 18.023438 9.164062 17.8125 8.90625 17.8125 Z M 8.4375 19.6875 L 7.5 19.6875 L 7.5 18.75 L 8.4375 18.75 Z M 8.4375 19.6875 "/>
</g>
</svg>
