<?xml version="1.0" encoding="UTF-8"?>
<svg xmlns="http://www.w3.org/2000/svg" xmlns:xlink="http://www.w3.org/1999/xlink" width="30pt" height="30pt" viewBox="0 0 30 30" version="1.1">
<g id="surface1">
<path style=" stroke:none;fill-rule:nonzero;fill:rgb(0%,40.392157%,96.470588%);fill-opacity:1;" d="M 13.5 4.5 L 27 4.5 L 27 5.5 L 13.5 5.5 Z M 13.5 4.5 "/>
<path style=" stroke:none;fill-rule:nonzero;fill:rgb(0%,40.392157%,96.470588%);fill-opacity:1;" d="M 13.5 6.5 L 22 6.5 L 22 7.5 L 13.5 7.5 Z M 13.5 6.5 "/>
<path style=" stroke:none;fill-rule:nonzero;fill:rgb(0%,40.392157%,96.470588%);fill-opacity:1;" d="M 13.5 8.5 L 22 8.5 L 22 9.5 L 13.5 9.5 Z M 13.5 8.5 "/>
<path style=" stroke:none;fill-rule:nonzero;fill:rgb(0%,40.392157%,96.470588%);fill-opacity:1;" d="M 17.5 2.5 L 27 2.5 L 27 3.5 L 17.5 3.5 Z M 17.5 2.5 "/>
<path style=" stroke:none;fill-rule:nonzero;fill:rgb(0%,40.392157%,96.470588%);fill-opacity:1;" d="M 15.5 2.5 L 16.5 2.5 L 16.5 3.5 L 15.5 3.5 Z M 15.5 2.5 "/>
<path style=" stroke:none;fill-rule:nonzero;fill:rgb(0%,40.392157%,96.470588%);fill-opacity:1;" d="M 14.5 20 L 15.5 20 L 15.5 21 L 14.5 21 Z M 14.5 20 "/>
<path style=" stroke:none;fill-rule:nonzero;fill:rgb(0%,40.392157%,96.470588%);fill-opacity:1;" d="M 8.351562 3.351562 L 7.648438 2.648438 L 6.648438 3.648438 C 6.453125 3.839844 6.453125 4.160156 6.648438 4.351562 L 7.648438 5.351562 L 8.351562 4.648438 L 7.707031 4 Z M 8.351562 3.351562 "/>
<path style=" stroke:none;fill-rule:nonzero;fill:rgb(0%,40.392157%,96.470588%);fill-opacity:1;" d="M 12.351562 3.648438 L 11.351562 2.648438 L 10.648438 3.351562 L 11.292969 4 L 10.648438 4.648438 L 11.351562 5.351562 L 12.351562 4.351562 C 12.546875 4.160156 12.546875 3.839844 12.351562 3.648438 Z M 12.351562 3.648438 "/>
<path style=" stroke:none;fill-rule:nonzero;fill:rgb(0%,40.392157%,96.470588%);fill-opacity:1;" d="M 8.523438 5.339844 L 9.527344 2.339844 L 10.472656 2.65625 L 9.472656 5.65625 Z M 8.523438 5.339844 "/>
<path style=" stroke:none;fill-rule:nonzero;fill:rgb(0%,40.392157%,96.470588%);fill-opacity:1;" d="M 26 15.5 L 26 11.5 L 25 11.5 L 25 15.5 L 24 15.5 L 24 10.5 L 23 10.5 L 23 15.5 L 22 15.5 L 22 13 L 21 13 L 21 15.5 L 20 15.5 L 20 12.5 L 19 12.5 L 19 15.5 L 18 15.5 L 18 13.5 L 17 13.5 L 17 15.5 L 16 15.5 L 16 16.5 L 27 16.5 L 27 15.5 Z M 26 15.5 "/>
<path style=" stroke:none;fill-rule:nonzero;fill:rgb(0%,40.392157%,96.470588%);fill-opacity:1;" d="M 26.5 0 L 3.5 0 C 1.84375 0 0.5 1.34375 0.5 3 L 0.5 20 C 0.5 21.65625 1.84375 23 3.5 23 L 9.691406 23 L 7.691406 27 L 5 27 C 4.171875 27 3.5 27.671875 3.5 28.5 C 3.5 29.328125 4.171875 30 5 30 L 25 30 C 25.828125 30 26.5 29.328125 26.5 28.5 C 26.5 27.671875 25.828125 27 25 27 L 22.308594 27 L 20.308594 23 L 26.5 23 C 28.15625 23 29.5 21.65625 29.5 20 L 29.5 3 C 29.5 1.34375 28.15625 0 26.5 0 Z M 1.5 7.035156 L 2.636719 8.386719 C 2.730469 8.5 2.871094 8.566406 3.019531 8.566406 L 4.550781 8.566406 C 4.699219 8.566406 4.839844 8.5 4.933594 8.386719 L 6.070312 7.035156 L 7.191406 7.398438 L 7.316406 9.160156 C 7.328125 9.308594 7.402344 9.445312 7.519531 9.53125 L 8.757812 10.429688 C 8.878906 10.515625 9.03125 10.546875 9.175781 10.511719 L 10.890625 10.085938 L 11.585938 11.039062 L 10.648438 12.539062 C 10.570312 12.664062 10.554688 12.816406 10.601562 12.957031 L 11.074219 14.414062 C 11.117188 14.554688 11.222656 14.667969 11.359375 14.722656 L 13 15.386719 L 13 16.566406 L 11.359375 17.230469 C 11.222656 17.289062 11.117188 17.402344 11.074219 17.542969 L 10.921875 18 L 8.042969 18 C 9.164062 15.652344 8.167969 12.84375 5.824219 11.722656 C 4.445312 11.066406 2.832031 11.117188 1.5 11.859375 Z M 1.5 13.050781 C 3.117188 11.789062 5.449219 12.078125 6.710938 13.695312 C 7.6875 14.941406 7.761719 16.671875 6.898438 18 L 1.5 18 Z M 25 28 C 25.277344 28 25.5 28.222656 25.5 28.5 C 25.5 28.777344 25.277344 29 25 29 L 5 29 C 4.722656 29 4.5 28.777344 4.5 28.5 C 4.5 28.222656 4.722656 28 5 28 Z M 21.191406 27 L 8.808594 27 L 10.808594 23 L 19.191406 23 Z M 28.5 20 C 28.5 21.105469 27.605469 22 26.5 22 L 3.5 22 C 2.394531 22 1.5 21.105469 1.5 20 L 1.5 19 L 28.5 19 Z M 28.5 18 L 12.128906 18 L 13.6875 17.367188 C 13.875 17.289062 14 17.109375 14 16.90625 L 14 15.050781 C 14 14.847656 13.875 14.664062 13.6875 14.585938 L 11.949219 13.882812 L 11.621094 12.871094 L 12.613281 11.28125 C 12.71875 11.109375 12.710938 10.886719 12.59375 10.722656 L 11.503906 9.222656 C 11.382812 9.058594 11.175781 8.984375 10.976562 9.03125 L 9.160156 9.480469 L 8.300781 8.859375 L 8.167969 6.992188 C 8.152344 6.789062 8.019531 6.613281 7.824219 6.550781 L 6.0625 5.980469 C 5.867188 5.917969 5.65625 5.976562 5.523438 6.132812 L 4.320312 7.566406 L 3.253906 7.566406 L 2.050781 6.132812 C 1.917969 5.976562 1.707031 5.917969 1.511719 5.980469 L 1.5 5.984375 L 1.5 3 C 1.5 1.894531 2.394531 1 3.5 1 L 26.5 1 C 27.605469 1 28.5 1.894531 28.5 3 Z M 28.5 18 "/>
</g>
</svg>
