<?xml version="1.0" encoding="UTF-8"?>
<svg xmlns="http://www.w3.org/2000/svg" xmlns:xlink="http://www.w3.org/1999/xlink" width="30pt" height="30pt" viewBox="0 0 30 30" version="1.1">
<g id="surface1">
<path style=" stroke:none;fill-rule:nonzero;fill:rgb(0%,40.392157%,96.470588%);fill-opacity:1;" d="M 25.25 18.75 L 6.5 18.75 C 2.910156 18.75 0 15.839844 0 12.25 C 0 8.660156 2.910156 5.75 6.5 5.75 C 6.542969 5.75 6.585938 5.75 6.625 5.75 C 7.820312 3.015625 10.519531 1.25 13.5 1.25 C 16.484375 1.25 19.183594 3.015625 20.375 5.75 C 22.636719 5.800781 24.660156 7.175781 25.546875 9.257812 C 28.109375 9.417969 30.082031 11.582031 30 14.148438 C 29.921875 16.714844 27.816406 18.75 25.25 18.75 Z M 6.5 6.75 C 3.460938 6.75 1 9.210938 1 12.25 C 1 15.289062 3.460938 17.75 6.5 17.75 L 25.25 17.75 C 27.320312 17.75 29 16.070312 29 14 C 29 11.929688 27.320312 10.25 25.25 10.25 L 25.199219 10.25 C 24.988281 10.25 24.800781 10.117188 24.730469 9.917969 C 24.054688 8.007812 22.246094 6.734375 20.222656 6.75 C 20.171875 6.75 20.125 6.75 20.074219 6.753906 C 19.855469 6.769531 19.652344 6.636719 19.574219 6.433594 C 18.609375 3.910156 16.191406 2.246094 13.492188 2.25 C 10.792969 2.253906 8.378906 3.921875 7.421875 6.445312 C 7.34375 6.660156 7.128906 6.789062 6.90625 6.769531 C 6.769531 6.753906 6.636719 6.75 6.5 6.75 Z M 6.5 6.75 "/>
<path style=" stroke:none;fill-rule:nonzero;fill:rgb(0%,40.392157%,96.470588%);fill-opacity:1;" d="M 3.386719 15.25 C 3.234375 15.25 3.089844 15.183594 2.996094 15.066406 C 2.128906 13.992188 1.804688 12.582031 2.113281 11.238281 C 2.421875 9.894531 3.332031 8.769531 4.582031 8.183594 C 4.832031 8.066406 5.128906 8.171875 5.246094 8.421875 C 5.363281 8.671875 5.257812 8.96875 5.007812 9.085938 C 3.785156 9.667969 3.003906 10.898438 3 12.25 C 2.996094 13.046875 3.269531 13.820312 3.773438 14.433594 C 3.894531 14.585938 3.917969 14.792969 3.835938 14.964844 C 3.753906 15.140625 3.578125 15.25 3.386719 15.25 Z M 3.386719 15.25 "/>
<path style=" stroke:none;fill-rule:nonzero;fill:rgb(0%,40.392157%,96.470588%);fill-opacity:1;" d="M 8.5 15.75 C 8.339844 15.75 8.1875 15.671875 8.09375 15.542969 C 8 15.410156 7.976562 15.246094 8.027344 15.09375 L 10.027344 9.09375 C 10.113281 8.828125 10.394531 8.6875 10.65625 8.777344 C 10.921875 8.863281 11.0625 9.144531 10.972656 9.40625 L 8.972656 15.40625 C 8.90625 15.613281 8.714844 15.75 8.5 15.75 Z M 8.5 15.75 "/>
<path style=" stroke:none;fill-rule:nonzero;fill:rgb(0%,40.392157%,96.470588%);fill-opacity:1;" d="M 12.5 15.75 C 12.285156 15.75 12.09375 15.613281 12.027344 15.40625 L 10.027344 9.40625 C 9.9375 9.144531 10.078125 8.863281 10.34375 8.777344 C 10.605469 8.6875 10.886719 8.828125 10.972656 9.09375 L 12.972656 15.09375 C 13.023438 15.246094 13 15.410156 12.90625 15.542969 C 12.8125 15.671875 12.660156 15.75 12.5 15.75 Z M 12.5 15.75 "/>
<path style=" stroke:none;fill-rule:nonzero;fill:rgb(0%,40.392157%,96.470588%);fill-opacity:1;" d="M 11.664062 13.25 L 9.335938 13.25 C 9.058594 13.25 8.835938 13.027344 8.835938 12.75 C 8.835938 12.472656 9.058594 12.25 9.335938 12.25 L 11.664062 12.25 C 11.941406 12.25 12.164062 12.472656 12.164062 12.75 C 12.164062 13.027344 11.941406 13.25 11.664062 13.25 Z M 11.664062 13.25 "/>
<path style=" stroke:none;fill-rule:nonzero;fill:rgb(0%,40.392157%,96.470588%);fill-opacity:1;" d="M 14 15.75 C 13.722656 15.75 13.5 15.527344 13.5 15.25 L 13.5 9.25 C 13.5 8.972656 13.722656 8.75 14 8.75 C 14.277344 8.75 14.5 8.972656 14.5 9.25 L 14.5 15.25 C 14.5 15.527344 14.277344 15.75 14 15.75 Z M 14 15.75 "/>
<path style=" stroke:none;fill-rule:nonzero;fill:rgb(0%,40.392157%,96.470588%);fill-opacity:1;" d="M 16 12.75 L 14 12.75 C 13.722656 12.75 13.5 12.527344 13.5 12.25 L 13.5 9.25 C 13.5 8.972656 13.722656 8.75 14 8.75 L 16 8.75 C 17.105469 8.75 18 9.644531 18 10.75 C 18 11.855469 17.105469 12.75 16 12.75 Z M 14.5 11.75 L 16 11.75 C 16.550781 11.75 17 11.300781 17 10.75 C 17 10.199219 16.550781 9.75 16 9.75 L 14.5 9.75 Z M 14.5 11.75 "/>
<path style=" stroke:none;fill-rule:nonzero;fill:rgb(0%,40.392157%,96.470588%);fill-opacity:1;" d="M 20 15.75 C 19.722656 15.75 19.5 15.527344 19.5 15.25 L 19.5 9.25 C 19.5 8.972656 19.722656 8.75 20 8.75 C 20.277344 8.75 20.5 8.972656 20.5 9.25 L 20.5 15.25 C 20.5 15.527344 20.277344 15.75 20 15.75 Z M 20 15.75 "/>
<path style=" stroke:none;fill-rule:nonzero;fill:rgb(0%,40.392157%,96.470588%);fill-opacity:1;" d="M 21.5 9.75 L 18.5 9.75 C 18.222656 9.75 18 9.527344 18 9.25 C 18 8.972656 18.222656 8.75 18.5 8.75 L 21.5 8.75 C 21.777344 8.75 22 8.972656 22 9.25 C 22 9.527344 21.777344 9.75 21.5 9.75 Z M 21.5 9.75 "/>
<path style=" stroke:none;fill-rule:nonzero;fill:rgb(0%,40.392157%,96.470588%);fill-opacity:1;" d="M 21.5 15.75 L 18.5 15.75 C 18.222656 15.75 18 15.527344 18 15.25 C 18 14.972656 18.222656 14.75 18.5 14.75 L 21.5 14.75 C 21.777344 14.75 22 14.972656 22 15.25 C 22 15.527344 21.777344 15.75 21.5 15.75 Z M 21.5 15.75 "/>
<path style=" stroke:none;fill-rule:nonzero;fill:rgb(0%,40.392157%,96.470588%);fill-opacity:1;" d="M 12.023438 28.75 C 11.898438 28.75 11.773438 28.722656 11.65625 28.675781 L 8.527344 27.375 C 8.296875 27.28125 8.117188 27.097656 8.019531 26.867188 C 7.929688 26.640625 7.933594 26.382812 8.03125 26.15625 L 8.777344 24.355469 C 8.042969 23.800781 7.390625 23.144531 6.832031 22.410156 L 5.015625 23.160156 C 4.789062 23.257812 4.535156 23.257812 4.308594 23.160156 C 4.082031 23.066406 3.902344 22.890625 3.808594 22.664062 L 2.511719 19.519531 C 2.316406 19.054688 2.535156 18.515625 2.996094 18.316406 L 4.769531 17.585938 C 4.933594 17.519531 5.125 17.542969 5.265625 17.652344 C 5.40625 17.761719 5.480469 17.9375 5.457031 18.117188 C 5.433594 18.292969 5.316406 18.445312 5.152344 18.511719 L 3.464844 19.207031 L 4.703125 22.210938 L 6.8125 21.335938 C 7.03125 21.25 7.28125 21.320312 7.414062 21.511719 C 8.03125 22.394531 8.796875 23.160156 9.675781 23.773438 C 9.867188 23.910156 9.941406 24.160156 9.851562 24.375 L 8.980469 26.480469 L 11.980469 27.726562 L 12.851562 25.617188 C 12.941406 25.402344 13.171875 25.277344 13.402344 25.316406 C 14.457031 25.503906 15.539062 25.503906 16.597656 25.3125 C 16.828125 25.273438 17.054688 25.394531 17.148438 25.613281 L 18.023438 27.722656 L 21.019531 26.480469 L 20.148438 24.371094 C 20.058594 24.152344 20.132812 23.902344 20.324219 23.769531 C 21.207031 23.15625 21.972656 22.390625 22.585938 21.511719 C 22.71875 21.320312 22.96875 21.246094 23.1875 21.335938 L 25.296875 22.210938 L 26.542969 19.207031 L 25.335938 18.707031 C 25.113281 18.625 24.980469 18.390625 25.019531 18.152344 C 25.0625 17.914062 25.269531 17.742188 25.511719 17.738281 C 25.578125 17.738281 25.644531 17.753906 25.707031 17.777344 L 26.992188 18.3125 C 27.222656 18.40625 27.402344 18.589844 27.496094 18.816406 C 27.585938 19.042969 27.585938 19.296875 27.492188 19.523438 L 26.191406 22.660156 C 26.097656 22.890625 25.914062 23.074219 25.6875 23.167969 C 25.457031 23.261719 25.199219 23.257812 24.972656 23.160156 L 23.167969 22.410156 C 22.609375 23.144531 21.957031 23.796875 21.222656 24.355469 L 21.972656 26.167969 C 22.070312 26.390625 22.070312 26.644531 21.980469 26.867188 C 21.882812 27.097656 21.699219 27.28125 21.46875 27.378906 L 18.335938 28.675781 C 18.109375 28.773438 17.855469 28.773438 17.628906 28.675781 C 17.398438 28.582031 17.21875 28.402344 17.128906 28.175781 L 16.375 26.359375 C 15.464844 26.488281 14.539062 26.488281 13.625 26.363281 L 12.878906 28.175781 C 12.734375 28.523438 12.398438 28.75 12.023438 28.75 Z M 11.953125 27.796875 Z M 12.046875 27.753906 Z M 21.050781 26.558594 L 21.050781 26.5625 Z M 8.953125 26.550781 Z M 21.089844 26.453125 Z M 8.910156 26.453125 Z M 25.269531 22.28125 L 25.265625 22.28125 Z M 4.632812 22.238281 Z M 25.359375 22.238281 Z M 26.609375 19.238281 Z M 3.4375 19.136719 Z M 3.4375 19.136719 "/>
<path style=" stroke:none;fill-rule:nonzero;fill:rgb(0%,40.392157%,96.470588%);fill-opacity:1;" d="M 15 23.25 C 11.894531 23.238281 9.117188 21.324219 8 18.429688 C 7.933594 18.261719 7.960938 18.070312 8.074219 17.933594 C 8.1875 17.792969 8.367188 17.722656 8.542969 17.753906 C 8.722656 17.78125 8.871094 17.902344 8.933594 18.070312 C 9.894531 20.585938 12.308594 22.25 15 22.25 C 17.691406 22.25 20.105469 20.585938 21.066406 18.070312 C 21.128906 17.902344 21.277344 17.78125 21.457031 17.753906 C 21.632812 17.722656 21.8125 17.792969 21.925781 17.933594 C 22.039062 18.070312 22.066406 18.261719 22 18.429688 C 20.882812 21.324219 18.105469 23.238281 15 23.25 Z M 15 23.25 "/>
<path style=" stroke:none;fill-rule:nonzero;fill:rgb(0%,40.392157%,96.470588%);fill-opacity:1;" d="M 9.5 7.25 C 9.339844 7.25 9.1875 7.171875 9.09375 7.042969 C 9 6.910156 8.976562 6.746094 9.027344 6.59375 C 10.125 3.289062 12.882812 3.25 13 3.25 C 13.277344 3.25 13.5 3.472656 13.5 3.75 C 13.5 4.023438 13.277344 4.25 13.003906 4.25 C 12.90625 4.25 10.839844 4.3125 9.972656 6.90625 C 9.90625 7.113281 9.714844 7.25 9.5 7.25 Z M 9.5 7.25 "/>
</g>
</svg>
