<?xml version="1.0" encoding="UTF-8"?>
<svg xmlns="http://www.w3.org/2000/svg" xmlns:xlink="http://www.w3.org/1999/xlink" width="30pt" height="30pt" viewBox="0 0 30 30" version="1.1">
<g id="surface1">
<path style=" stroke:none;fill-rule:nonzero;fill:rgb(0%,40.392157%,96.470588%);fill-opacity:1;" d="M 27.363281 0 L 2.636719 0 C 1.183594 0 0 1.183594 0 2.636719 L 0 21.503906 C 0 22.957031 1.183594 24.140625 2.636719 24.140625 L 10.550781 24.140625 C 10.386719 25.519531 9.839844 26.839844 8.96875 27.929688 L 8.71875 28.242188 L 6.796875 28.242188 C 6.3125 28.242188 5.917969 28.636719 5.917969 29.121094 C 5.917969 29.605469 6.3125 30 6.796875 30 L 23.203125 30 C 23.6875 30 24.082031 29.605469 24.082031 29.121094 C 24.082031 28.636719 23.6875 28.242188 23.203125 28.242188 L 21.28125 28.242188 L 21.03125 27.929688 C 20.160156 26.839844 19.613281 25.519531 19.445312 24.140625 L 27.363281 24.140625 C 28.816406 24.140625 30 22.957031 30 21.503906 L 30 2.636719 C 30 1.183594 28.816406 0 27.363281 0 Z M 2.636719 1.757812 L 27.363281 1.757812 C 27.847656 1.757812 28.242188 2.152344 28.242188 2.636719 L 28.242188 18.164062 L 1.757812 18.164062 L 1.757812 2.636719 C 1.757812 2.152344 2.152344 1.757812 2.636719 1.757812 Z M 19.097656 28.242188 L 10.902344 28.242188 C 11.691406 27.007812 12.179688 25.597656 12.320312 24.140625 L 17.679688 24.140625 C 17.820312 25.597656 18.308594 27.007812 19.097656 28.242188 Z M 27.363281 22.382812 L 2.636719 22.382812 C 2.152344 22.382812 1.757812 21.988281 1.757812 21.503906 L 1.757812 19.921875 L 28.242188 19.921875 L 28.242188 21.503906 C 28.242188 21.988281 27.847656 22.382812 27.363281 22.382812 Z M 27.363281 22.382812 "/>
<path style=" stroke:none;fill-rule:nonzero;fill:rgb(0%,40.392157%,96.470588%);fill-opacity:1;" d="M 4.453125 11.425781 L 9.140625 11.425781 C 9.625 11.425781 10.019531 11.03125 10.019531 10.546875 L 10.019531 5.859375 C 10.019531 5.375 9.625 4.980469 9.140625 4.980469 L 4.453125 4.980469 C 3.96875 4.980469 3.574219 5.375 3.574219 5.859375 L 3.574219 10.546875 C 3.574219 11.03125 3.96875 11.425781 4.453125 11.425781 Z M 5.332031 6.738281 L 8.261719 6.738281 L 8.261719 9.667969 L 5.332031 9.667969 Z M 5.332031 6.738281 "/>
<path style=" stroke:none;fill-rule:nonzero;fill:rgb(0%,40.392157%,96.470588%);fill-opacity:1;" d="M 12.65625 11.425781 L 17.34375 11.425781 C 17.828125 11.425781 18.222656 11.03125 18.222656 10.546875 L 18.222656 5.859375 C 18.222656 5.375 17.828125 4.980469 17.34375 4.980469 L 12.65625 4.980469 C 12.171875 4.980469 11.777344 5.375 11.777344 5.859375 L 11.777344 10.546875 C 11.777344 11.03125 12.171875 11.425781 12.65625 11.425781 Z M 13.535156 6.738281 L 16.464844 6.738281 L 16.464844 9.667969 L 13.535156 9.667969 Z M 13.535156 6.738281 "/>
<path style=" stroke:none;fill-rule:nonzero;fill:rgb(0%,40.392157%,96.470588%);fill-opacity:1;" d="M 20.859375 11.425781 L 25.546875 11.425781 C 26.03125 11.425781 26.425781 11.03125 26.425781 10.546875 L 26.425781 5.859375 C 26.425781 5.375 26.03125 4.980469 25.546875 4.980469 L 20.859375 4.980469 C 20.375 4.980469 19.980469 5.375 19.980469 5.859375 L 19.980469 10.546875 C 19.980469 11.03125 20.375 11.425781 20.859375 11.425781 Z M 21.738281 6.738281 L 24.667969 6.738281 L 24.667969 9.667969 L 21.738281 9.667969 Z M 21.738281 6.738281 "/>
<path style=" stroke:none;fill-rule:nonzero;fill:rgb(0%,40.392157%,96.470588%);fill-opacity:1;" d="M 12.65625 14.941406 L 17.34375 14.941406 C 17.828125 14.941406 18.222656 14.546875 18.222656 14.0625 C 18.222656 13.578125 17.828125 13.183594 17.34375 13.183594 L 12.65625 13.183594 C 12.171875 13.183594 11.777344 13.578125 11.777344 14.0625 C 11.777344 14.546875 12.171875 14.941406 12.65625 14.941406 Z M 12.65625 14.941406 "/>
<path style=" stroke:none;fill-rule:nonzero;fill:rgb(0%,40.392157%,96.470588%);fill-opacity:1;" d="M 20.859375 14.941406 L 25.546875 14.941406 C 26.03125 14.941406 26.425781 14.546875 26.425781 14.0625 C 26.425781 13.578125 26.03125 13.183594 25.546875 13.183594 L 20.859375 13.183594 C 20.375 13.183594 19.980469 13.578125 19.980469 14.0625 C 19.980469 14.546875 20.375 14.941406 20.859375 14.941406 Z M 20.859375 14.941406 "/>
<path style=" stroke:none;fill-rule:nonzero;fill:rgb(0%,40.392157%,96.470588%);fill-opacity:1;" d="M 4.453125 14.941406 L 9.140625 14.941406 C 9.625 14.941406 10.019531 14.546875 10.019531 14.0625 C 10.019531 13.578125 9.625 13.183594 9.140625 13.183594 L 4.453125 13.183594 C 3.96875 13.183594 3.574219 13.578125 3.574219 14.0625 C 3.574219 14.546875 3.96875 14.941406 4.453125 14.941406 Z M 4.453125 14.941406 "/>
</g>
</svg>
