<?xml version="1.0" encoding="UTF-8"?>
<svg xmlns="http://www.w3.org/2000/svg" xmlns:xlink="http://www.w3.org/1999/xlink" width="30pt" height="30pt" viewBox="0 0 30 30" version="1.1">
<g id="surface1">
<path style=" stroke:none;fill-rule:nonzero;fill:rgb(0%,40.392157%,96.470588%);fill-opacity:1;" d="M 27.1875 0.46875 L 9.375 0.46875 C 8.082031 0.46875 7.03125 1.519531 7.03125 2.8125 L 7.03125 4.21875 L 2.8125 4.21875 C 1.519531 4.21875 0.46875 5.269531 0.46875 6.5625 L 0.46875 20.625 C 0.46875 21.917969 1.519531 22.96875 2.8125 22.96875 L 9.375 22.96875 L 9.375 25.78125 L 8.4375 25.78125 C 7.144531 25.78125 6.09375 26.832031 6.09375 28.125 L 6.09375 29.0625 C 6.09375 29.320312 6.304688 29.53125 6.5625 29.53125 L 18.75 29.53125 C 19.007812 29.53125 19.21875 29.320312 19.21875 29.0625 L 19.21875 28.125 C 19.21875 26.832031 18.167969 25.78125 16.875 25.78125 L 15.9375 25.78125 L 15.9375 22.96875 L 22.5 22.96875 C 23.792969 22.96875 24.84375 21.917969 24.84375 20.625 L 24.84375 17.34375 L 27.1875 17.34375 C 28.480469 17.34375 29.53125 16.292969 29.53125 15 L 29.53125 2.8125 C 29.53125 1.519531 28.480469 0.46875 27.1875 0.46875 Z M 9.375 1.40625 L 27.1875 1.40625 C 27.964844 1.40625 28.59375 2.035156 28.59375 2.8125 L 28.59375 3.28125 L 7.96875 3.28125 L 7.96875 2.8125 C 7.96875 2.035156 8.597656 1.40625 9.375 1.40625 Z M 18.28125 28.125 L 18.28125 28.59375 L 7.03125 28.59375 L 7.03125 28.125 C 7.03125 27.347656 7.660156 26.71875 8.4375 26.71875 L 16.875 26.71875 C 17.652344 26.71875 18.28125 27.347656 18.28125 28.125 Z M 15 25.78125 L 10.3125 25.78125 L 10.3125 22.96875 L 15 22.96875 Z M 22.5 22.03125 L 2.8125 22.03125 C 2.035156 22.03125 1.40625 21.402344 1.40625 20.625 L 1.40625 19.21875 L 23.90625 19.21875 L 23.90625 20.625 C 23.90625 21.402344 23.277344 22.03125 22.5 22.03125 Z M 23.90625 18.28125 L 1.40625 18.28125 L 1.40625 6.5625 C 1.40625 5.785156 2.035156 5.15625 2.8125 5.15625 L 7.03125 5.15625 L 7.03125 15 C 7.03125 16.292969 8.082031 17.34375 9.375 17.34375 L 23.90625 17.34375 Z M 27.1875 16.40625 L 9.375 16.40625 C 8.597656 16.40625 7.96875 15.777344 7.96875 15 L 7.96875 4.21875 L 28.59375 4.21875 L 28.59375 15 C 28.59375 15.777344 27.964844 16.40625 27.1875 16.40625 Z M 27.1875 16.40625 "/>
<path style=" stroke:none;fill-rule:nonzero;fill:rgb(0%,40.392157%,96.470588%);fill-opacity:1;" d="M 22.03125 20.15625 L 22.96875 20.15625 L 22.96875 21.09375 L 22.03125 21.09375 Z M 22.03125 20.15625 "/>
<path style=" stroke:none;fill-rule:nonzero;fill:rgb(0%,40.392157%,96.470588%);fill-opacity:1;" d="M 20.15625 20.15625 L 21.09375 20.15625 L 21.09375 21.09375 L 20.15625 21.09375 Z M 20.15625 20.15625 "/>
<path style=" stroke:none;fill-rule:nonzero;fill:rgb(0%,40.392157%,96.470588%);fill-opacity:1;" d="M 18.28125 20.15625 L 19.21875 20.15625 L 19.21875 21.09375 L 18.28125 21.09375 Z M 18.28125 20.15625 "/>
<path style=" stroke:none;fill-rule:nonzero;fill:rgb(0%,40.392157%,96.470588%);fill-opacity:1;" d="M 27.1875 5.15625 L 9.375 5.15625 C 9.117188 5.15625 8.90625 5.367188 8.90625 5.625 L 8.90625 15 C 8.90625 15.257812 9.117188 15.46875 9.375 15.46875 L 27.1875 15.46875 C 27.445312 15.46875 27.65625 15.257812 27.65625 15 L 27.65625 5.625 C 27.65625 5.367188 27.445312 5.15625 27.1875 5.15625 Z M 12.65625 13.59375 L 14.53125 13.59375 L 14.53125 12.65625 L 12.65625 12.65625 L 12.65625 11.71875 L 13.59375 11.71875 L 13.59375 10.78125 L 12.65625 10.78125 L 12.65625 9.84375 L 13.59375 9.84375 L 13.59375 8.90625 L 12.65625 8.90625 L 12.65625 7.96875 L 15.46875 7.96875 L 15.46875 14.53125 L 12.65625 14.53125 Z M 19.738281 10.703125 C 19.632812 10.753906 19.515625 10.78125 19.398438 10.78125 L 19.039062 10.78125 C 18.921875 10.78125 18.804688 10.753906 18.699219 10.703125 C 18.441406 10.574219 18.28125 10.308594 18.28125 10.023438 C 18.28125 9.804688 18.402344 9.601562 18.601562 9.507812 C 18.941406 9.335938 19.175781 9.003906 19.21875 8.625 L 19.84375 9.25 C 20.046875 9.453125 20.160156 9.734375 20.15625 10.023438 C 20.15625 10.308594 19.996094 10.574219 19.738281 10.703125 Z M 18.75 11.6875 C 18.847656 11.703125 18.941406 11.714844 19.039062 11.71875 L 19.398438 11.71875 C 19.496094 11.714844 19.589844 11.703125 19.6875 11.6875 L 19.6875 14.53125 L 18.75 14.53125 Z M 22.96875 10.78125 L 23.90625 10.78125 L 23.90625 14.53125 L 22.96875 14.53125 Z M 23.152344 9.84375 L 23.4375 8.980469 L 23.722656 9.84375 Z M 26.71875 14.53125 L 24.84375 14.53125 L 24.84375 10.3125 C 24.851562 10.261719 24.851562 10.210938 24.84375 10.164062 L 23.90625 7.351562 C 23.84375 7.15625 23.664062 7.027344 23.460938 7.027344 C 23.257812 7.027344 23.078125 7.15625 23.015625 7.351562 L 22.078125 10.164062 C 22.054688 10.210938 22.039062 10.261719 22.03125 10.3125 L 22.03125 14.53125 L 20.625 14.53125 L 20.625 11.1875 C 20.925781 10.875 21.09375 10.457031 21.09375 10.023438 C 21.097656 9.484375 20.882812 8.964844 20.5 8.585938 L 19.09375 7.179688 C 18.957031 7.046875 18.753906 7.007812 18.582031 7.082031 C 18.40625 7.148438 18.289062 7.3125 18.28125 7.5 L 18.28125 8.507812 C 18.28125 8.574219 18.242188 8.636719 18.183594 8.667969 C 17.667969 8.921875 17.34375 9.449219 17.34375 10.023438 C 17.34375 10.457031 17.511719 10.875 17.8125 11.1875 L 17.8125 14.53125 L 16.40625 14.53125 L 16.40625 7.5 C 16.40625 7.242188 16.195312 7.03125 15.9375 7.03125 L 12.1875 7.03125 C 11.929688 7.03125 11.71875 7.242188 11.71875 7.5 L 11.71875 14.53125 L 9.84375 14.53125 L 9.84375 6.09375 L 26.71875 6.09375 Z M 26.71875 14.53125 "/>
</g>
</svg>
