<?xml version="1.0" encoding="UTF-8"?>
<svg xmlns="http://www.w3.org/2000/svg" xmlns:xlink="http://www.w3.org/1999/xlink" width="30pt" height="30pt" viewBox="0 0 30 30" version="1.1">
<g id="surface1">
<path style=" stroke:none;fill-rule:nonzero;fill:rgb(0%,40.392157%,96.470588%);fill-opacity:1;" d="M 26.71875 4.6875 L 3.28125 4.6875 C 1.988281 4.6875 0.9375 5.738281 0.9375 7.03125 L 0.9375 21.09375 C 0.9375 22.386719 1.988281 23.4375 3.28125 23.4375 L 10.78125 23.4375 L 10.78125 26.25 L 9.375 26.25 C 8.597656 26.253906 7.972656 26.878906 7.96875 27.65625 L 7.96875 28.59375 C 7.96875 28.851562 8.179688 29.0625 8.4375 29.0625 L 21.5625 29.0625 C 21.820312 29.0625 22.03125 28.851562 22.03125 28.59375 L 22.03125 27.65625 C 22.027344 26.878906 21.402344 26.253906 20.625 26.25 L 19.21875 26.25 L 19.21875 23.4375 L 26.71875 23.4375 C 28.011719 23.4375 29.0625 22.386719 29.0625 21.09375 L 29.0625 7.03125 C 29.0625 5.738281 28.011719 4.6875 26.71875 4.6875 Z M 20.625 27.1875 C 20.882812 27.1875 21.09375 27.398438 21.09375 27.65625 L 21.09375 28.125 L 8.90625 28.125 L 8.90625 27.65625 C 8.90625 27.398438 9.117188 27.1875 9.375 27.1875 Z M 11.71875 26.25 L 11.71875 23.4375 L 18.28125 23.4375 L 18.28125 26.25 Z M 28.125 21.09375 C 28.121094 21.871094 27.496094 22.496094 26.71875 22.5 L 3.28125 22.5 C 2.503906 22.496094 1.878906 21.871094 1.875 21.09375 L 1.875 20.625 L 28.125 20.625 Z M 28.125 19.6875 L 1.875 19.6875 L 1.875 7.03125 C 1.878906 6.253906 2.503906 5.628906 3.28125 5.625 L 26.71875 5.625 C 27.496094 5.628906 28.121094 6.253906 28.125 7.03125 Z M 28.125 19.6875 "/>
<path style=" stroke:none;fill-rule:nonzero;fill:rgb(0%,40.392157%,96.470588%);fill-opacity:1;" d="M 25.78125 12.1875 C 25.1875 12.191406 24.660156 12.566406 24.460938 13.125 L 20.132812 13.125 C 19.878906 10.480469 17.65625 8.460938 15 8.460938 C 12.34375 8.460938 10.121094 10.480469 9.867188 13.125 L 5.539062 13.125 C 5.3125 12.480469 4.652344 12.09375 3.976562 12.207031 C 3.300781 12.324219 2.808594 12.910156 2.808594 13.59375 C 2.808594 14.277344 3.300781 14.863281 3.976562 14.980469 C 4.652344 15.09375 5.3125 14.707031 5.539062 14.0625 L 9.867188 14.0625 C 10.121094 16.707031 12.34375 18.726562 15 18.726562 C 17.65625 18.726562 19.878906 16.707031 20.132812 14.0625 L 24.460938 14.0625 C 24.699219 14.738281 25.40625 15.125 26.101562 14.964844 C 26.800781 14.800781 27.265625 14.144531 27.183594 13.433594 C 27.101562 12.722656 26.496094 12.183594 25.78125 12.1875 Z M 4.21875 14.0625 C 3.960938 14.0625 3.75 13.851562 3.75 13.59375 C 3.75 13.335938 3.960938 13.125 4.21875 13.125 C 4.476562 13.125 4.6875 13.335938 4.6875 13.59375 C 4.6875 13.851562 4.476562 14.0625 4.21875 14.0625 Z M 17.648438 10.3125 C 17.4375 10.484375 17.210938 10.632812 16.972656 10.757812 C 16.871094 10.382812 16.730469 10.023438 16.554688 9.675781 C 16.949219 9.832031 17.316406 10.046875 17.648438 10.3125 Z M 15 9.375 C 15.355469 9.375 15.8125 10.007812 16.105469 11.101562 C 15.382812 11.300781 14.617188 11.300781 13.894531 11.101562 C 14.1875 10.007812 14.644531 9.375 15 9.375 Z M 11.691406 10.984375 C 12.035156 11.269531 12.410156 11.507812 12.816406 11.695312 C 12.734375 12.167969 12.683594 12.644531 12.664062 13.125 L 10.808594 13.125 C 10.894531 12.34375 11.203125 11.601562 11.691406 10.984375 Z M 10.808594 14.0625 L 12.664062 14.0625 C 12.683594 14.542969 12.734375 15.019531 12.816406 15.492188 C 12.410156 15.679688 12.035156 15.917969 11.691406 16.203125 C 11.203125 15.585938 10.894531 14.84375 10.808594 14.0625 Z M 12.351562 16.875 C 12.5625 16.703125 12.789062 16.554688 13.027344 16.429688 C 13.128906 16.804688 13.269531 17.164062 13.445312 17.511719 C 13.050781 17.355469 12.683594 17.140625 12.351562 16.875 Z M 13.027344 10.757812 C 12.789062 10.632812 12.5625 10.484375 12.351562 10.3125 C 12.683594 10.046875 13.050781 9.832031 13.445312 9.675781 C 13.269531 10.023438 13.128906 10.382812 13.027344 10.757812 Z M 15 17.8125 C 14.644531 17.8125 14.1875 17.179688 13.894531 16.085938 C 14.617188 15.886719 15.382812 15.886719 16.105469 16.085938 C 15.8125 17.179688 15.355469 17.8125 15 17.8125 Z M 16.292969 15.167969 C 15.445312 14.945312 14.554688 14.945312 13.707031 15.167969 C 13.652344 14.800781 13.617188 14.433594 13.601562 14.0625 L 16.398438 14.0625 C 16.382812 14.433594 16.347656 14.800781 16.292969 15.167969 Z M 13.601562 13.125 C 13.617188 12.753906 13.652344 12.386719 13.707031 12.019531 C 14.554688 12.242188 15.445312 12.242188 16.292969 12.019531 C 16.347656 12.386719 16.382812 12.753906 16.398438 13.125 Z M 16.554688 17.511719 C 16.730469 17.164062 16.871094 16.804688 16.972656 16.429688 C 17.210938 16.554688 17.4375 16.703125 17.648438 16.875 C 17.316406 17.140625 16.949219 17.355469 16.554688 17.511719 Z M 18.308594 16.203125 C 17.964844 15.917969 17.589844 15.679688 17.183594 15.492188 C 17.265625 15.019531 17.316406 14.542969 17.335938 14.0625 L 19.191406 14.0625 C 19.105469 14.84375 18.796875 15.585938 18.308594 16.203125 Z M 17.335938 13.125 C 17.316406 12.644531 17.265625 12.167969 17.183594 11.695312 C 17.589844 11.507812 17.964844 11.269531 18.308594 10.984375 C 18.796875 11.601562 19.105469 12.34375 19.191406 13.125 Z M 25.78125 14.0625 C 25.523438 14.0625 25.3125 13.851562 25.3125 13.59375 C 25.3125 13.335938 25.523438 13.125 25.78125 13.125 C 26.039062 13.125 26.25 13.335938 26.25 13.59375 C 26.25 13.851562 26.039062 14.0625 25.78125 14.0625 Z M 25.78125 14.0625 "/>
<path style=" stroke:none;fill-rule:nonzero;fill:rgb(0%,40.392157%,96.470588%);fill-opacity:1;" d="M 15 1.875 C 16.121094 1.871094 17.191406 2.316406 17.984375 3.109375 L 18.644531 2.449219 C 16.632812 0.433594 13.367188 0.433594 11.355469 2.449219 L 12.015625 3.109375 C 12.808594 2.316406 13.878906 1.871094 15 1.875 Z M 15 1.875 "/>
<path style=" stroke:none;fill-rule:nonzero;fill:rgb(0%,40.392157%,96.470588%);fill-opacity:1;" d="M 12.679688 3.777344 L 13.34375 4.4375 C 13.785156 3.996094 14.378906 3.75 15 3.75 C 15.621094 3.75 16.214844 3.996094 16.65625 4.4375 L 17.320312 3.777344 C 16.707031 3.160156 15.871094 2.8125 15 2.8125 C 14.128906 2.8125 13.292969 3.160156 12.679688 3.777344 Z M 12.679688 3.777344 "/>
<path style=" stroke:none;fill-rule:nonzero;fill:rgb(0%,40.392157%,96.470588%);fill-opacity:1;" d="M 14.53125 6.5625 L 15.46875 6.5625 L 15.46875 7.5 L 14.53125 7.5 Z M 14.53125 6.5625 "/>
</g>
</svg>
